<svg width="19px" height="19px" viewBox="0 0 19 19"
     version="1.1" xmlns="http://www.w3.org/2000/svg"
     xmlns:xlink="http://www.w3.org/1999/xlink">
    <g stroke="none" stroke-width="1" fill="none" fill-rule="evenodd">
        <g fill="#000000">
            <path d="M7.44951183,13.8347513 C10.9759659,13.8347513 13.8347513,10.9759659 13.8347513,7.44951183 C13.8347513,3.92297873 10.9759659,1.0641934 7.44951183,1.0641934 C3.92305773,1.0641934 1.06427241,3.92297873 1.06427241,7.44951183 C1.06427241,10.9759659 3.92305773,13.8347513 7.44951183,13.8347513 M13.0799403,12.3274205 L19,18.2474802 L18.2474802,19 L12.3274995,13.0799403 C11.0205246,14.2131838 9.31512899,14.8989447 7.44951183,14.8989447 C3.33526271,14.8989447 0,11.563682 0,7.44951183 C0,3.33526271 3.33526271,0 7.44951183,0 C11.563761,0 14.8990237,3.33526271 14.8990237,7.44951183 C14.8990237,9.31504998 14.2131838,11.0205246 13.0799403,12.3274205"/>
        </g>
    </g>
</svg>
